<svg xmlns="http://www.w3.org/2000/svg" width="165" height="100" viewBox="0 0 165 100" fill="none">
<rect x="11" y="52.9951" width="70" height="10" rx="3" transform="rotate(-40 11 52.9951)" fill="#8D39E3"/>
<rect x="41" y="54" width="15" height="15" rx="3" fill="#8D39E3"/>
<rect x="74" y="54" width="15" height="15" rx="3" fill="#8D39E3"/>
<rect x="22" y="74" width="10" height="19.9014" rx="3" transform="rotate(-30 22 74)" fill="#8D39E3"/>
<rect x="31" y="81" width="100" height="10" rx="3" fill="#8D39E3"/>
<rect x="65.4279" y="8" width="70" height="10" rx="3" transform="rotate(40 65.4279 8)" fill="#8D39E3"/>
<rect x="106" y="16" width="28" height="14" rx="3" transform="rotate(90 106 16)" fill="#8D39E3"/>
<rect x="121" y="87.4353" width="32.9229" height="10" rx="3" transform="rotate(-67 121 87.4353)" fill="#8D39E3"/>
<circle cx="141.5" cy="50.5" r="9.5" stroke="#8D39E3" stroke-width="6"/>
</svg>